<?xml version="1.0" standalone="no"?>
<!DOCTYPE svg PUBLIC "-//W3C//DTD SVG 20010904//EN"
 "http://www.w3.org/TR/2001/REC-SVG-20010904/DTD/svg10.dtd">
<svg version="1.0" xmlns="http://www.w3.org/2000/svg"
 width="1310.000000pt" height="1310.000000pt" viewBox="0 0 1310.000000 1310.000000"
 preserveAspectRatio="xMidYMid meet">
<metadata>
Created by potrace 1.14, written by Peter Selinger 2001-2017
</metadata>
<g transform="translate(0.000000,1310.000000) scale(0.100000,-0.100000)"
fill="#000000" stroke="none">
<path d="M6499 11684 c-19 -23 -199 -327 -199 -336 0 -4 -4 -8 -10 -8 -5 0
-10 -5 -10 -10 0 -6 -22 -47 -50 -91 -27 -44 -50 -83 -50 -86 0 -2 -15 -28
-34 -56 -33 -52 -198 -325 -204 -339 -8 -18 -282 -474 -292 -485 -5 -7 -10
-15 -10 -18 0 -3 -15 -29 -33 -58 -18 -29 -36 -59 -41 -67 -4 -8 -12 -24 -19
-35 -29 -48 -343 -572 -353 -590 -21 -38 -776 -1300 -800 -1337 -13 -21 -24
-42 -24 -48 0 -5 -3 -10 -8 -10 -4 0 -13 -13 -20 -30 -7 -16 -23 -44 -35 -62
-12 -18 -85 -139 -161 -268 -76 -129 -149 -251 -161 -270 -32 -50 -333 -556
-363 -610 -14 -25 -29 -50 -34 -56 -19 -25 -368 -617 -368 -625 0 -5 -4 -9
-10 -9 -5 0 -10 -4 -10 -9 0 -4 -78 -138 -173 -297 -294 -492 -390 -653 -541
-910 -55 -93 -103 -171 -106 -174 -4 -3 -9 -10 -11 -15 -2 -6 -29 -52 -59
-103 -30 -51 -59 -101 -65 -110 -71 -123 -111 -188 -117 -190 -4 -2 -8 -8 -8
-12 0 -7 -114 -203 -180 -310 -31 -51 -116 -196 -119 -205 -2 -5 -8 -13 -14
-16 -5 -4 771 -7 1726 -7 954 0 1739 -2 1744 -5 5 -3 9 -380 9 -892 -1 -488 2
-889 6 -891 5 -3 1950 -7 2388 -4 l55 0 0 895 -1 895 26 1 c14 0 796 0 1738 1
941 0 1712 3 1712 5 0 5 -84 148 -125 213 -12 19 -67 112 -122 205 -56 94
-163 274 -238 400 -76 127 -145 244 -155 260 -42 73 -275 463 -295 495 -12 19
-89 148 -170 285 -82 138 -186 312 -232 388 -45 76 -83 140 -83 142 0 4 -110
185 -131 215 -5 8 -15 27 -22 43 -6 15 -15 27 -19 27 -4 0 -8 5 -8 10 0 6 -11
27 -24 48 -13 20 -115 190 -226 377 -112 187 -211 354 -221 370 -10 17 -24 41
-32 55 -7 14 -125 212 -262 440 -136 228 -322 538 -412 688 -89 150 -163 278
-163 283 0 5 -4 9 -9 9 -5 0 -11 8 -14 18 -5 16 -33 64 -50 87 -4 5 -57 93
-117 195 -60 102 -113 190 -118 195 -5 6 -11 15 -13 20 -3 8 -59 105 -94 163
-6 9 -68 114 -139 232 -71 118 -136 227 -145 243 -9 15 -81 136 -161 269 -80
133 -149 250 -155 259 -5 10 -32 55 -60 101 -27 46 -54 91 -60 101 -5 9 -48
81 -95 158 -47 78 -94 158 -106 178 -12 20 -96 161 -187 314 -92 152 -167 282
-167 287 0 6 -4 10 -8 10 -5 0 -17 18 -27 40 -22 49 -29 54 -46 34z"/>
</g>
</svg>
