<?xml version="1.0" standalone="no"?>
<!DOCTYPE svg PUBLIC "-//W3C//DTD SVG 20010904//EN"
 "http://www.w3.org/TR/2001/REC-SVG-20010904/DTD/svg10.dtd">
<svg version="1.0" xmlns="http://www.w3.org/2000/svg"
 width="343.000000pt" height="343.000000pt" viewBox="0 0 343.000000 343.000000"
 preserveAspectRatio="xMidYMid meet">
<metadata>
Created by potrace 1.14, written by Peter Selinger 2001-2017
</metadata>
<g transform="translate(0.000000,343.000000) scale(0.100000,-0.100000)"
fill="#000000" stroke="none">
<path d="M0 1715 l0 -1715 545 0 545 0 0 29 c0 16 7 36 15 44 14 15 192 77
219 77 9 0 13 43 15 167 1 93 6 205 10 251 4 50 3 86 -3 89 -5 3 -6 1 -2 -5 4
-7 4 -12 0 -12 -8 0 -406 284 -448 320 -56 48 -193 140 -210 140 -9 0 -16 7
-16 15 0 8 3 15 6 15 4 0 63 -41 133 -91 69 -50 118 -83 108 -73 -9 11 -92 73
-185 139 -158 114 -167 122 -164 150 2 17 7 35 12 40 6 8 47 126 67 195 4 13
4 13 -6 0 -6 -8 -29 -68 -52 -133 -41 -116 -41 -118 -23 -139 14 -16 15 -20 4
-16 -8 2 -19 14 -25 26 -5 12 -13 22 -17 22 -5 0 -8 11 -8 25 0 14 4 25 8 25
7 0 31 48 66 130 4 8 16 33 29 55 20 36 26 40 67 42 24 2 48 7 54 13 14 14 29
12 20 -2 -4 -7 2 -4 14 6 26 23 29 34 5 15 -10 -7 -6 0 9 16 33 37 35 47 48
211 9 109 8 136 -4 165 -14 34 -14 38 31 128 25 50 48 90 50 87 2 -2 -16 -44
-40 -93 -37 -73 -43 -92 -34 -108 6 -11 14 -38 18 -60 l6 -40 1 35 c1 19 -5
46 -12 60 -13 22 -10 32 30 112 24 48 41 93 39 101 -12 29 34 102 90 141 52
38 54 40 38 58 -15 17 -15 21 1 56 24 49 238 549 333 777 41 99 82 188 90 198
21 23 53 22 53 -2 0 -28 65 -162 75 -154 4 5 5 3 2 -4 -7 -11 56 -157 64 -148
3 2 5 -4 6 -15 1 -10 26 -69 55 -129 37 -75 51 -114 44 -121 -7 -7 -6 -14 3
-22 10 -11 11 -9 6 7 -6 18 -4 17 14 -4 12 -12 19 -27 16 -31 -3 -4 2 -13 10
-20 8 -7 15 -17 15 -23 0 -5 12 -35 26 -66 125 -265 129 -274 114 -300 -13
-25 -25 -28 -16 -3 4 10 -2 7 -14 -8 -21 -26 -27 -60 -10 -60 5 0 7 7 4 15
-11 29 7 33 35 7 15 -15 39 -34 53 -43 13 -10 50 -68 83 -135 l60 -119 0 -160
c0 -145 2 -166 24 -219 13 -32 33 -68 45 -80 11 -11 21 -24 21 -28 0 -3 4 -10
9 -15 5 -5 6 -3 2 5 -10 16 -6 15 50 -8 26 -11 48 -19 49 -18 1 2 14 33 30 70
29 70 56 92 80 67 8 -8 54 -106 104 -218 62 -138 91 -216 91 -242 0 -28 6 -40
24 -52 36 -24 59 -105 57 -198 l-2 -78 64 -48 c43 -32 67 -57 71 -74 3 -15 12
-34 21 -42 22 -22 19 -60 -7 -84 -43 -39 -137 -95 -148 -88 -6 3 -9 1 -8 -6 2
-6 -3 -14 -11 -17 -9 -3 -11 0 -6 9 5 8 4 11 -1 6 -5 -5 -9 -14 -9 -20 0 -5
-6 -12 -14 -15 -9 -3 -11 0 -6 8 5 9 4 11 -4 6 -6 -4 -9 -11 -6 -16 7 -12 -62
-53 -76 -44 -7 4 -9 3 -5 -4 3 -6 -4 -18 -16 -26 -27 -19 -42 -21 -32 -3 4 7
3 9 -2 4 -5 -5 -9 -14 -9 -20 0 -5 -6 -12 -14 -15 -8 -3 -11 0 -7 7 5 7 1 9
-8 5 -9 -3 -16 -10 -16 -16 0 -5 5 -6 10 -3 8 5 17 -181 11 -218 -1 -5 3 -6 9
-2 17 11 102 -44 98 -63 -4 -23 -43 -30 -173 -30 -137 -1 -189 7 -193 31 -3
13 13 25 62 47 l66 30 2 103 2 102 6 -115 6 -115 2 111 c2 104 1 112 -20 130
-19 15 -20 16 -9 1 7 -9 9 -17 3 -17 -12 0 -34 25 -27 32 3 3 -2 11 -12 19
-14 12 -15 12 -9 0 6 -9 4 -12 -5 -9 -8 3 -14 10 -14 15 0 6 -4 15 -9 20 -5 5
-6 3 -2 -4 4 -7 4 -13 1 -13 -15 0 -185 122 -180 130 3 5 0 12 -6 16 -8 5 -9
3 -4 -6 5 -8 3 -11 -6 -8 -8 3 -14 10 -14 16 0 5 -4 14 -9 19 -5 5 -6 2 -1 -6
5 -9 3 -12 -6 -9 -8 3 -14 10 -14 16 0 5 -4 14 -9 19 -5 5 -6 3 -2 -4 12 -22
-10 -14 -38 12 -30 27 -29 39 5 107 11 22 35 45 61 60 l43 23 8 89 c4 49 6 91
3 93 -3 3 -23 -9 -44 -26 -22 -17 -44 -31 -50 -31 -6 0 -12 -3 -14 -7 -3 -7
-80 -61 -103 -73 -6 -3 -38 -24 -72 -48 -64 -43 -79 -51 -67 -30 4 7 3 8 -5 4
-6 -4 -9 -11 -6 -16 3 -5 -15 -23 -39 -39 -47 -33 -62 -38 -50 -19 4 7 3 8 -5
4 -6 -4 -9 -11 -6 -16 3 -5 -3 -15 -15 -22 -19 -12 -20 -22 -20 -249 l0 -237
33 -12 c77 -31 235 -109 242 -119 4 -7 1 -18 -5 -26 -11 -13 83 -15 749 -15
l761 0 0 1715 0 1715 -1715 0 -1715 0 0 -1715z m644 -558 c25 -20 27 -25 13
-30 -11 -4 -17 -1 -17 8 0 8 -7 15 -15 15 -9 0 -18 7 -21 15 -4 8 -9 13 -13
10 -4 -2 -8 2 -8 10 0 16 16 9 61 -28z"/>
<path d="M1482 3388 c-7 -7 -12 -16 -12 -22 0 -5 6 -1 14 10 8 10 16 17 19 14
2 -3 34 -70 70 -150 80 -177 106 -230 112 -230 11 0 -167 382 -181 387 -5 2
-15 -2 -22 -9z"/>
<path d="M1366 3125 c-9 -26 -7 -32 5 -12 6 10 9 21 6 23 -2 3 -7 -2 -11 -11z"/>
<path d="M1336 3055 c-9 -26 -7 -32 5 -12 6 10 9 21 6 23 -2 3 -7 -2 -11 -11z"/>
<path d="M1690 2976 c0 -2 7 -9 15 -16 13 -11 14 -10 9 4 -5 14 -24 23 -24 12z"/>
<path d="M1720 2935 c0 -5 5 -17 10 -25 5 -8 10 -10 10 -5 0 6 -5 17 -10 25
-5 8 -10 11 -10 5z"/>
<path d="M1136 2585 c-9 -26 -7 -32 5 -12 6 10 9 21 6 23 -2 3 -7 -2 -11 -11z"/>
<path d="M1096 2495 c-9 -26 -7 -32 5 -12 6 10 9 21 6 23 -2 3 -7 -2 -11 -11z"/>
<path d="M1072 2435 c-16 -36 -15 -52 5 -64 14 -8 15 -12 4 -25 -12 -14 -12
-16 2 -11 24 10 29 45 6 45 -21 0 -25 21 -8 52 6 11 9 22 6 24 -2 2 -9 -7 -15
-21z"/>
<path d="M956 2233 c-6 -14 -5 -15 5 -6 7 7 10 15 7 18 -3 3 -9 -2 -12 -12z"/>
<path d="M2090 2141 c0 -6 4 -13 10 -16 6 -3 7 1 4 9 -7 18 -14 21 -14 7z"/>
<path d="M2157 1969 c4 -13 8 -18 11 -10 2 7 -1 18 -6 23 -8 8 -9 4 -5 -13z"/>
<path d="M2152 1880 c0 -14 2 -19 5 -12 2 6 2 18 0 25 -3 6 -5 1 -5 -13z"/>
<path d="M853 1785 c0 -38 2 -53 4 -32 2 20 2 52 0 70 -2 17 -4 1 -4 -38z"/>
<path d="M2142 1820 c0 -14 2 -19 5 -12 2 6 2 18 0 25 -3 6 -5 1 -5 -13z"/>
<path d="M2152 1740 c0 -14 2 -19 5 -12 2 6 2 18 0 25 -3 6 -5 1 -5 -13z"/>
<path d="M840 1667 c0 -23 -7 -54 -16 -67 l-16 -25 21 24 c15 16 21 37 21 67
0 24 -2 44 -5 44 -3 0 -5 -19 -5 -43z"/>
<path d="M2445 1630 c-3 -6 1 -7 9 -4 18 7 21 14 7 14 -6 0 -13 -4 -16 -10z"/>
<path d="M2500 1575 c0 -5 5 -17 10 -25 5 -8 10 -10 10 -5 0 6 -5 17 -10 25
-5 8 -10 11 -10 5z"/>
<path d="M2400 1532 c0 -7 -9 -21 -20 -32 -13 -13 -16 -20 -7 -20 15 0 42 49
32 58 -3 3 -5 0 -5 -6z"/>
<path d="M679 1504 c17 -13 25 -14 34 -5 9 9 8 11 -4 6 -10 -4 -20 -2 -24 4
-3 6 -11 11 -18 11 -6 0 -1 -7 12 -16z"/>
<path d="M2541 1485 c0 -5 6 -21 14 -35 8 -14 14 -20 14 -15 0 6 -6 21 -14 35
-8 14 -14 21 -14 15z"/>
<path d="M2571 1419 c-1 -4 14 -40 33 -80 19 -41 35 -69 35 -64 0 11 -67 153
-68 144z"/>
<path d="M2646 1245 c9 -24 9 -60 -1 -97 -5 -19 -3 -28 4 -28 7 0 10 4 7 8 -3
5 0 24 6 44 8 28 7 40 -6 64 -10 16 -14 20 -10 9z"/>
<path d="M2706 1100 c20 -29 34 -98 34 -171 0 -41 4 -79 8 -84 9 -14 132 -108
132 -101 0 2 -29 27 -65 55 l-65 51 0 78 c0 82 -17 154 -40 174 -12 11 -12 10
-4 -2z"/>
<path d="M2113 999 c-63 -47 -72 -64 -11 -20 50 37 58 38 59 9 1 -21 2 -21 6
-3 3 11 9 24 14 30 5 5 9 13 9 17 0 17 -27 6 -77 -33z"/>
<path d="M970 926 c0 -2 8 -10 18 -17 15 -13 16 -12 3 4 -13 16 -21 21 -21 13z"/>
<path d="M2150 815 c0 -19 -10 -30 -49 -49 -38 -20 -52 -34 -65 -66 -18 -45
-21 -76 -7 -84 5 -4 7 3 4 13 -3 11 3 40 12 64 14 37 25 48 66 67 42 20 49 28
49 52 0 15 -2 28 -5 28 -3 0 -5 -11 -5 -25z"/>
<path d="M2086 704 c-24 -23 -16 -49 14 -49 21 0 25 5 25 29 0 35 -16 43 -39
20z"/>
<path d="M1632 645 c-9 -63 -6 -505 3 -505 6 0 9 62 7 172 -3 228 -7 358 -10
333z"/>
<path d="M2182 641 c-8 -4 -12 -19 -10 -32 4 -34 53 -40 63 -8 5 16 2 26 -11
36 -21 15 -24 16 -42 4z"/>
<path d="M2890 641 c0 -6 4 -13 10 -16 6 -3 7 1 4 9 -7 18 -14 21 -14 7z"/>
<path d="M1354 290 c0 -58 1 -81 3 -52 2 28 2 76 0 105 -2 28 -3 5 -3 -53z"/>
<path d="M2514 240 c0 -58 1 -81 3 -52 2 28 2 76 0 105 -2 28 -3 5 -3 -53z"/>
<path d="M2500 106 c0 -10 9 -16 21 -16 24 0 21 23 -4 28 -10 2 -17 -3 -17
-12z"/>
<path d="M2390 100 c0 -5 7 -10 16 -10 8 0 12 5 9 10 -3 6 -10 10 -16 10 -5 0
-9 -4 -9 -10z"/>
<path d="M2368 53 c6 -2 18 -2 25 0 6 3 1 5 -13 5 -14 0 -19 -2 -12 -5z"/>
<path d="M2448 53 c12 -2 30 -2 40 0 9 3 -1 5 -23 4 -22 0 -30 -2 -17 -4z"/>
<path d="M2533 53 c9 -2 23 -2 30 0 6 3 -1 5 -18 5 -16 0 -22 -2 -12 -5z"/>
<path d="M1103 22 c-1 -22 0 -24 9 -8 6 10 6 22 2 26 -5 5 -10 -3 -11 -18z"/>
<path d="M1894 42 c4 -7 2 -21 -5 -30 -12 -15 -11 -15 6 0 16 15 17 20 6 30
-11 11 -13 10 -7 0z"/>
</g>
</svg>
